<svg xmlns="http://www.w3.org/2000/svg" version="1.1" xmlns:xlink="http://www.w3.org/1999/xlink" xmlns:svgjs="http://svgjs.dev/svgjs" width="2000" height="570" viewBox="0 0 2000 570"><g transform="matrix(1,0,0,1,-1.2121212121212466,0.07676704135639056)"><svg viewBox="0 0 396 113" data-background-color="#ffffff" preserveAspectRatio="xMidYMid meet" height="570" width="2000" xmlns="http://www.w3.org/2000/svg" xmlns:xlink="http://www.w3.org/1999/xlink"><g id="tight-bounds" transform="matrix(1,0,0,1,0.2400000000000091,-0.015218729251358809)"><svg viewBox="0 0 395.52 113.03043745850273" height="113.03043745850273" width="395.52"><g><svg viewBox="0 0 628.7038932330428 179.66898281754303" height="113.03043745850273" width="395.52"><g><rect width="11.738146766494255" height="179.66898281754303" x="426.2481328965818" y="0" fill="#19ae5d" opacity="1" stroke-width="0" stroke="transparent" fill-opacity="1" class="rect-yte-0" data-fill-palette-color="primary" rx="1%" id="yte-0" data-palette-color="#19ae5d"></rect></g><g transform="matrix(1,0,0,1,0,0.4469377682028295)"><svg viewBox="0 0 395.52 178.77510728113737" height="178.77510728113737" width="395.52"><g id="textblocktransform"><svg viewBox="0 0 395.52 178.77510728113737" height="178.77510728113737" width="395.52" id="textblock"><g><svg viewBox="0 0 395.52 130.16203636363636" height="130.16203636363636" width="395.52"><g transform="matrix(1,0,0,1,0,0)"><svg width="395.52" viewBox="0 -35.6 109.99 36.2" height="130.16203636363636" data-palette-color="#19ae5d"><path d="M7.7 0.6L7.7 0.6Q5.4 0.6 3.38-0.2 1.35-1 0-2.3L0-2.3 2.3-5.95Q3.3-4.9 4.7-4.2 6.1-3.5 7.55-3.5L7.55-3.5Q9.95-3.5 11.35-5.23 12.75-6.95 12.75-11.05L12.75-11.05 12.75-35 17.5-35 17.5-11.55Q17.5-5.2 14.8-2.3 12.1 0.6 7.7 0.6ZM39.45 0.6L39.45 0.6Q34.9 0.6 31.4-1.58 27.9-3.75 25.95-7.78 24-11.8 24-17.35L24-17.35Q24-22.7 25.97-26.83 27.95-30.95 31.57-33.27 35.2-35.6 40.05-35.6L40.05-35.6Q42.55-35.6 44.6-35.13 46.65-34.65 48.45-33.8L48.45-33.8 47-29.8Q45.45-30.55 43.82-31 42.2-31.45 40-31.45L40-31.45Q36.8-31.45 34.27-29.8 31.75-28.15 30.3-25.05 28.85-21.95 28.85-17.55L28.85-17.55Q28.85-13.35 30.27-10.2 31.7-7.05 34.22-5.3 36.75-3.55 40-3.55L40-3.55Q42.45-3.55 44.25-4.15 46.05-4.75 47.75-5.7L47.75-5.7 49.2-1.75Q47.35-0.75 44.97-0.08 42.6 0.6 39.45 0.6ZM67.9 0.6L67.9 0.6Q61.85 0.6 58.4-3 54.95-6.6 54.95-13.3L54.95-13.3 54.95-35 59.7-35 59.7-14.05Q59.7-9.05 61.75-6.3 63.8-3.55 67.9-3.55L67.9-3.55Q72.15-3.55 74.25-6.23 76.35-8.9 76.35-14.05L76.35-14.05 76.35-35 80.95-35 80.95-13.5Q80.95-9.1 79.32-5.93 77.7-2.75 74.77-1.07 71.85 0.6 67.9 0.6ZM109.99 0L89.19 0 89.19-35 93.94-35 93.94-4.25 109.99-4.25 109.99 0Z" opacity="1" transform="matrix(1,0,0,1,0,0)" fill="#19ae5d" class="wordmark-text-0" data-fill-palette-color="primary" id="text-0"></path></svg></g></svg></g><g transform="matrix(1,0,0,1,0,160.8901692602182)"><svg viewBox="0 0 232.209792 17.884938020919176" height="17.884938020919176" width="232.209792"><g transform="matrix(1,0,0,1,0,0)"><svg width="232.209792" viewBox="4.5 -37 630.93 48.6" height="17.884938020919176" data-palette-color="#19ae5d"><path d="M25.5 0L4.5 0 4.5-35 25.5-35 25.5-30.9 9.25-30.9 9.25-20.25 23.25-20.25 23.25-16.25 9.25-16.25 9.25-4.1 25.5-4.1 25.5 0ZM52.25-2.45L48.85 0.45 40.1-10.4 31.45 0.35 28.25-2.45 37.5-13.2 28.6-23.5 32.1-26.55 40.15-16.15 48.05-26.35 51.4-23.5 42.75-13.4 52.25-2.45ZM62.2 11L57.7 11 57.7-19.35Q57.7-21.05 56.87-21.78 56.05-22.5 54.75-22.5L54.75-22.5 55.7-26Q60.3-26 61.45-22.35L61.45-22.35Q61.95-23.1 63.07-24.1 64.2-25.1 65.87-25.85 67.55-26.6 69.7-26.6L69.7-26.6Q72.7-26.6 75.32-25.03 77.95-23.45 79.55-20.48 81.15-17.5 81.15-13.25L81.15-13.25Q81.15-9.1 79.55-5.98 77.95-2.85 75.37-1.13 72.8 0.6 69.8 0.6L69.8 0.6Q67.5 0.6 65.5-0.33 63.5-1.25 62.2-2.45L62.2-2.45 62.2 11ZM68.9-3.4L68.9-3.4Q72.3-3.4 74.42-6.08 76.55-8.75 76.55-13.1L76.55-13.1Q76.55-16.1 75.47-18.25 74.4-20.4 72.62-21.55 70.84-22.7 68.7-22.7L68.7-22.7Q66.55-22.7 64.82-21.63 63.1-20.55 62.2-19.3L62.2-19.3 62.2-6.5Q63.5-5.15 65.2-4.28 66.9-3.4 68.9-3.4ZM95.29 0.6L95.29 0.6Q92.99 0.6 91.14-0.28 89.29-1.15 88.22-3.1 87.14-5.05 87.14-8.15L87.14-8.15 87.14-37 91.64-37 91.64-8.6Q91.64-5.9 92.77-4.6 93.89-3.3 95.89-3.3L95.89-3.3Q96.84-3.3 97.77-3.53 98.69-3.75 99.34-4.05L99.34-4.05 100.44-0.4Q99.54 0 98.22 0.3 96.89 0.6 95.29 0.6ZM114.89 0.6L114.89 0.6Q111.19 0.6 108.24-1.13 105.29-2.85 103.62-5.93 101.94-9 101.94-13L101.94-13Q101.94-17.2 103.64-20.25 105.34-23.3 108.29-24.95 111.24-26.6 114.89-26.6L114.89-26.6Q118.54-26.6 121.47-24.95 124.39-23.3 126.12-20.28 127.84-17.25 127.84-13.1L127.84-13.1Q127.84-8.95 126.14-5.88 124.44-2.8 121.52-1.1 118.59 0.6 114.89 0.6ZM114.89-3.4L114.89-3.4Q118.84-3.4 121.04-6.08 123.24-8.75 123.24-13L123.24-13Q123.24-15.6 122.14-17.78 121.04-19.95 119.17-21.28 117.29-22.6 114.89-22.6L114.89-22.6Q110.94-22.6 108.74-20 106.54-17.4 106.54-13.1L106.54-13.1Q106.54-10.5 107.64-8.28 108.74-6.05 110.62-4.73 112.49-3.4 114.89-3.4ZM138.34 0L133.84 0 133.84-26 138.19-26 138.19-20.35Q138.84-22 139.94-23.43 141.04-24.85 142.69-25.73 144.34-26.6 146.54-26.6L146.54-26.6Q147.29-26.6 148.04-26.53 148.79-26.45 149.29-26.3L149.29-26.3 147.94-21.65Q146.99-22.05 145.69-22.05L145.69-22.05Q143.84-22.05 142.16-21 140.49-19.95 139.41-17.75 138.34-15.55 138.34-12.15L138.34-12.15 138.34 0ZM162.69 0.6L162.69 0.6Q157.09 0.6 153.81-2.98 150.54-6.55 150.54-13L150.54-13Q150.54-16.9 152.01-19.98 153.49-23.05 156.14-24.83 158.79-26.6 162.29-26.6L162.29-26.6Q166.04-26.6 168.51-24.98 170.99-23.35 172.24-20.6 173.49-17.85 173.49-14.55L173.49-14.55Q173.49-12.8 173.34-11.15L173.34-11.15 155.14-11.15Q155.59-7.5 157.69-5.45 159.79-3.4 163.24-3.4L163.24-3.4Q165.49-3.4 167.29-3.88 169.09-4.35 170.74-5.1L170.74-5.1 171.79-1.25Q169.99-0.45 167.74 0.08 165.49 0.6 162.69 0.6ZM155.09-14.8L155.09-14.8 169.34-14.8Q169.34-18.6 167.44-20.65 165.54-22.7 162.19-22.7L162.19-22.7Q159.29-22.7 157.39-20.68 155.49-18.65 155.09-14.8ZM208.43 0.6L208.43 0.6Q203.88 0.6 200.38-1.58 196.88-3.75 194.93-7.78 192.98-11.8 192.98-17.35L192.98-17.35Q192.98-22.7 194.96-26.83 196.93-30.95 200.56-33.27 204.18-35.6 209.03-35.6L209.03-35.6Q211.53-35.6 213.58-35.13 215.63-34.65 217.43-33.8L217.43-33.8 215.98-29.8Q214.43-30.55 212.81-31 211.18-31.45 208.98-31.45L208.98-31.45Q205.78-31.45 203.26-29.8 200.73-28.15 199.28-25.05 197.83-21.95 197.83-17.55L197.83-17.55Q197.83-13.35 199.26-10.2 200.68-7.05 203.21-5.3 205.73-3.55 208.98-3.55L208.98-3.55Q211.43-3.55 213.23-4.15 215.03-4.75 216.73-5.7L216.73-5.7 218.18-1.75Q216.33-0.75 213.96-0.08 211.58 0.6 208.43 0.6ZM232.68 0.6L232.68 0.6Q230.43 0.6 228.43-0.35 226.43-1.3 225.18-3.43 223.93-5.55 223.93-9.1L223.93-9.1 223.93-26 228.43-26 228.43-9.7Q228.43-6.65 229.73-5.03 231.03-3.4 233.53-3.4L233.53-3.4Q235.58-3.4 237.5-4.23 239.43-5.05 240.93-6.45L240.93-6.45 240.93-26 245.43-26 245.43-6.75Q245.43-4.6 246.35-3.93 247.28-3.25 248.38-3.25L248.38-3.25 247.43 0.25Q242.78 0.25 241.68-3.45L241.68-3.45Q239.93-1.65 237.63-0.53 235.33 0.6 232.68 0.6ZM262.27 0.6L262.27 0.6Q259.98 0.6 258.13-0.28 256.27-1.15 255.2-3.1 254.13-5.05 254.13-8.15L254.13-8.15 254.13-37 258.63-37 258.63-8.6Q258.63-5.9 259.75-4.6 260.88-3.3 262.88-3.3L262.88-3.3Q263.82-3.3 264.75-3.53 265.68-3.75 266.32-4.05L266.32-4.05 267.43-0.4Q266.52 0 265.2 0.3 263.88 0.6 262.27 0.6ZM276.17 0L271.67 0 271.67-26 276.17-26 276.17 0ZM273.92-30.45L273.92-30.45Q272.62-30.45 271.7-31.4 270.77-32.35 270.77-33.6L270.77-33.6Q270.77-35.05 271.62-35.9 272.47-36.75 273.92-36.75L273.92-36.75Q275.22-36.75 276.15-35.83 277.07-34.9 277.07-33.6L277.07-33.6Q277.07-32.2 276.22-31.33 275.37-30.45 273.92-30.45ZM288.67 0L284.17 0 284.17-26 288.52-26 288.52-21.65Q289.92-23.75 292.1-25.18 294.27-26.6 297.27-26.6L297.27-26.6Q301.67-26.6 303.85-23.95 306.02-21.3 306.02-16.95L306.02-16.95 306.02 0 301.52 0 301.52-16.45Q301.52-19.25 300.19-20.95 298.87-22.65 296.52-22.65L296.52-22.65Q294.22-22.65 292.17-21.03 290.12-19.4 288.67-17.2L288.67-17.2 288.67 0ZM323.72 0.6L323.72 0.6Q320.47 0.6 317.82-1.05 315.17-2.7 313.59-5.73 312.02-8.75 312.02-12.85L312.02-12.85Q312.02-16.75 313.59-19.85 315.17-22.95 317.94-24.78 320.72-26.6 324.32-26.6L324.32-26.6Q326.57-26.6 328.39-25.83 330.22-25.05 331.57-23.9L331.57-23.9 331.57-26 335.67-26 335.67-6.3Q335.67-4.4 336.59-3.83 337.52-3.25 338.62-3.25L338.62-3.25 337.67 0.25Q332.87 0.25 331.87-3.65L331.87-3.65Q330.72-2.05 328.74-0.73 326.77 0.6 323.72 0.6ZM324.72-3.4L324.72-3.4Q326.62-3.4 328.32-4.33 330.02-5.25 331.17-6.65L331.17-6.65 331.17-20.6Q329.82-21.55 328.19-22.13 326.57-22.7 324.77-22.7L324.77-22.7Q322.37-22.7 320.54-21.48 318.72-20.25 317.67-18.07 316.62-15.9 316.62-13L316.62-13Q316.62-10.2 317.67-8.03 318.72-5.85 320.57-4.63 322.42-3.4 324.72-3.4ZM349.12 0L344.62 0 344.62-26 348.97-26 348.97-20.35Q349.62-22 350.72-23.43 351.82-24.85 353.47-25.73 355.12-26.6 357.32-26.6L357.32-26.6Q358.07-26.6 358.82-26.53 359.57-26.45 360.07-26.3L360.07-26.3 358.72-21.65Q357.77-22.05 356.47-22.05L356.47-22.05Q354.62-22.05 352.94-21 351.27-19.95 350.19-17.75 349.12-15.55 349.12-12.15L349.12-12.15 349.12 0ZM365.21 11.6L365.21 11.6Q363.71 11.6 362.59 11.3 361.46 11 360.81 10.6L360.81 10.6 361.81 6.85Q362.41 7.2 363.31 7.45 364.21 7.7 365.31 7.7L365.31 7.7Q367.41 7.7 369.06 6.35 370.71 5 372.21 1.05L372.21 1.05 373.36-1.95 370.96-1.95 360.81-24.8 364.81-26.6 374.51-4.95 382.06-26.4 386.21-24.8 376.66 1.3Q375.21 5.3 373.51 7.55 371.81 9.8 369.76 10.7 367.71 11.6 365.21 11.6ZM410.21 0L405.71 0 405.71-26 410.21-26 410.21 0ZM407.96-30.45L407.96-30.45Q406.66-30.45 405.73-31.4 404.81-32.35 404.81-33.6L404.81-33.6Q404.81-35.05 405.66-35.9 406.51-36.75 407.96-36.75L407.96-36.75Q409.26-36.75 410.18-35.83 411.11-34.9 411.11-33.6L411.11-33.6Q411.11-32.2 410.26-31.33 409.41-30.45 407.96-30.45ZM422.71 0L418.21 0 418.21-26 422.56-26 422.56-21.65Q423.96-23.75 426.13-25.18 428.31-26.6 431.31-26.6L431.31-26.6Q435.71-26.6 437.88-23.95 440.06-21.3 440.06-16.95L440.06-16.95 440.06 0 435.56 0 435.56-16.45Q435.56-19.25 434.23-20.95 432.91-22.65 430.56-22.65L430.56-22.65Q428.26-22.65 426.21-21.03 424.16-19.4 422.71-17.2L422.71-17.2 422.71 0ZM466.5 0.6L466.5 0.6Q464.2 0.6 462.18-0.2 460.15-1 458.8-2.3L458.8-2.3 461.1-5.95Q462.1-4.9 463.5-4.2 464.9-3.5 466.35-3.5L466.35-3.5Q468.75-3.5 470.15-5.23 471.55-6.95 471.55-11.05L471.55-11.05 471.55-35 476.3-35 476.3-11.55Q476.3-5.2 473.6-2.3 470.9 0.6 466.5 0.6ZM494.25 0.6L494.25 0.6Q491 0.6 488.35-1.05 485.7-2.7 484.12-5.73 482.55-8.75 482.55-12.85L482.55-12.85Q482.55-16.75 484.12-19.85 485.7-22.95 488.47-24.78 491.25-26.6 494.85-26.6L494.85-26.6Q497.1-26.6 498.92-25.83 500.75-25.05 502.1-23.9L502.1-23.9 502.1-26 506.2-26 506.2-6.3Q506.2-4.4 507.12-3.83 508.05-3.25 509.15-3.25L509.15-3.25 508.2 0.25Q503.4 0.25 502.4-3.65L502.4-3.65Q501.25-2.05 499.27-0.73 497.3 0.6 494.25 0.6ZM495.25-3.4L495.25-3.4Q497.15-3.4 498.85-4.33 500.55-5.25 501.7-6.65L501.7-6.65 501.7-20.6Q500.35-21.55 498.72-22.13 497.1-22.7 495.3-22.7L495.3-22.7Q492.9-22.7 491.07-21.48 489.25-20.25 488.2-18.07 487.15-15.9 487.15-13L487.15-13Q487.15-10.2 488.2-8.03 489.25-5.85 491.1-4.63 492.95-3.4 495.25-3.4ZM536.2-2.5L533.1 0.5 519.65-13.35 519.65 0 515.15 0 515.15-37 519.65-37 519.65-15.85 531.4-26.5 534-23.65 523.95-14.75 536.2-2.5ZM549.89 0.6L549.89 0.6Q546.64 0.6 543.99-1.05 541.34-2.7 539.77-5.73 538.19-8.75 538.19-12.85L538.19-12.85Q538.19-16.75 539.77-19.85 541.34-22.95 544.12-24.78 546.89-26.6 550.49-26.6L550.49-26.6Q552.74-26.6 554.57-25.83 556.39-25.05 557.74-23.9L557.74-23.9 557.74-26 561.84-26 561.84-6.3Q561.84-4.4 562.77-3.83 563.69-3.25 564.79-3.25L564.79-3.25 563.84 0.25Q559.04 0.25 558.04-3.65L558.04-3.65Q556.89-2.05 554.92-0.73 552.94 0.6 549.89 0.6ZM550.89-3.4L550.89-3.4Q552.79-3.4 554.49-4.33 556.19-5.25 557.34-6.65L557.34-6.65 557.34-20.6Q555.99-21.55 554.37-22.13 552.74-22.7 550.94-22.7L550.94-22.7Q548.54-22.7 546.72-21.48 544.89-20.25 543.84-18.07 542.79-15.9 542.79-13L542.79-13Q542.79-10.2 543.84-8.03 544.89-5.85 546.74-4.63 548.59-3.4 550.89-3.4ZM575.29 0L570.79 0 570.79-26 575.14-26 575.14-20.35Q575.79-22 576.89-23.43 577.99-24.85 579.64-25.73 581.29-26.6 583.49-26.6L583.49-26.6Q584.24-26.6 584.99-26.53 585.74-26.45 586.24-26.3L586.24-26.3 584.89-21.65Q583.94-22.05 582.64-22.05L582.64-22.05Q580.79-22.05 579.12-21 577.44-19.95 576.37-17.75 575.29-15.55 575.29-12.15L575.29-12.15 575.29 0ZM600.84 0.6L600.84 0.6Q597.09 0.6 594.91-1.88 592.74-4.35 592.74-8.95L592.74-8.95 592.74-21.15 588.24-21.15 588.24-25.05 592.84-25.05 593.79-33.25 597.24-33.25 597.24-25.05 604.44-25.05 604.44-21.15 597.24-21.15 597.24-8.6Q597.24-5.7 598.46-4.55 599.69-3.4 601.39-3.4L601.39-3.4Q602.64-3.4 603.76-3.8 604.89-4.2 605.84-4.75L605.84-4.75 607.09-1.15Q606.09-0.55 604.39 0.03 602.69 0.6 600.84 0.6ZM620.53 0.6L620.53 0.6Q617.28 0.6 614.63-1.05 611.98-2.7 610.41-5.73 608.83-8.75 608.83-12.85L608.83-12.85Q608.83-16.75 610.41-19.85 611.98-22.95 614.76-24.78 617.53-26.6 621.13-26.6L621.13-26.6Q623.38-26.6 625.21-25.83 627.03-25.05 628.38-23.9L628.38-23.9 628.38-26 632.48-26 632.48-6.3Q632.48-4.4 633.41-3.83 634.33-3.25 635.43-3.25L635.43-3.25 634.48 0.25Q629.68 0.25 628.68-3.65L628.68-3.65Q627.53-2.05 625.56-0.73 623.58 0.6 620.53 0.6ZM621.53-3.4L621.53-3.4Q623.43-3.4 625.13-4.33 626.83-5.25 627.98-6.65L627.98-6.65 627.98-20.6Q626.63-21.55 625.01-22.13 623.38-22.7 621.58-22.7L621.58-22.7Q619.18-22.7 617.36-21.48 615.53-20.25 614.48-18.07 613.43-15.9 613.43-13L613.43-13Q613.43-10.2 614.48-8.03 615.53-5.85 617.38-4.63 619.23-3.4 621.53-3.4Z" opacity="1" transform="matrix(1,0,0,1,0,0)" fill="#19ae5d" class="slogan-text-1" data-fill-palette-color="secondary" id="text-1"></path></svg></g></svg></g></svg></g></svg></g><g transform="matrix(1,0,0,1,468.7144125596579,0.4469377682028295)"><svg viewBox="0 0 159.98948067338492 178.77510728113737" height="178.77510728113737" width="159.98948067338492"><g><svg xmlns="http://www.w3.org/2000/svg" xmlns:xlink="http://www.w3.org/1999/xlink" version="1.1" x="0" y="0" viewBox="18.8520508 12.2592773 112.2958984 125.48144539999998" enable-background="new 0 0 150 150" xml:space="preserve" height="178.77510728113737" width="159.98948067338492" class="icon-icon-0" data-fill-palette-color="accent" id="icon-0"><g fill="#feb52b" data-fill-palette-color="accent"><path d="M43.483 111.671H106.683A2.624 2.624 0 0 0 109.303 109.051V108.6A2.624 2.624 0 0 0 106.684 105.981H43.483A2.69 2.69 0 0 0 40.795 108.668V108.984A2.69 2.69 0 0 0 43.483 111.67" fill="#feb52b" data-fill-palette-color="accent"></path><polygon points="80.6835938,24.2524414 81.8134766,24.2524414 81.8134766,20.6899414 68.1494141,20.6899414 68.1494141,24.2524414    69.3164063,24.2524414  " fill="#feb52b" data-fill-palette-color="accent"></polygon><polygon points="74.9980469,12.2592773 69.3565063,18.6899414 80.612915,18.6899414  " fill="#feb52b" data-fill-palette-color="accent"></polygon><polygon points="71.2392578,26.2524414 68.1894531,103.980957 81.8105469,103.980957 78.7607422,26.2524414  " fill="#feb52b" data-fill-palette-color="accent"></polygon><polygon points="125.3222656,129.8344727 98.2553711,129.8344727 51.7583008,129.8344727 24.6777344,129.8344727    18.8520508,137.7407227 131.1479492,137.7407227  " fill="#feb52b" data-fill-palette-color="accent"></polygon><path d="M53.503 127.834H96.484C97.274 122.47 99.437 119.534 102.627 115.204 102.987 114.717 103.362 114.208 103.752 113.672H46.207C46.674 114.335 47.118 114.958 47.541 115.551 50.708 119.994 52.687 122.77 53.503 127.834" fill="#feb52b" data-fill-palette-color="accent"></path></g></svg></g></svg></g></svg></g><defs></defs></svg><rect width="395.52" height="113.03043745850273" fill="none" stroke="none" visibility="hidden"></rect></g></svg></g></svg>